<svg width="90" height="90" viewBox="0 0 90 90" fill="none" xmlns="http://www.w3.org/2000/svg">
<path d="M67.2277 5H22.3913C12.7864 5 5 12.7864 5 22.3913V67.2277C5 76.8326 12.7864 84.619 22.3913 84.619H67.2277C76.8326 84.619 84.619 76.8326 84.619 67.2277V22.3913C84.619 12.7864 76.8326 5 67.2277 5Z" fill="#2319DC"/>
<path d="M32.5292 46.0099C36.8543 45.079 36.2645 39.8947 36.1378 38.7619C35.9246 37.0146 33.8747 33.9635 31.0927 34.2072C27.5914 34.5203 27.0802 39.5877 27.0802 39.5877C26.6059 41.9344 28.2119 46.9437 32.5292 46.0099ZM40.5611 37.3194C42.9486 37.3194 44.8784 34.5629 44.8784 31.1577C44.8784 27.7526 42.9486 25 40.5611 25C38.1725 25 36.2377 27.7521 36.2377 31.1577C36.2377 34.5629 38.1719 37.3194 40.5611 37.3194ZM50.8542 37.7247C54.0503 38.1441 56.0979 34.7283 56.5075 32.1401C56.926 29.5553 54.8612 26.5488 52.6038 26.0328C50.3363 25.5105 47.5058 29.1471 47.2507 31.5195C46.9399 34.4214 47.6614 37.3149 50.8542 37.7247ZM63.5108 42.073C63.5108 40.8351 62.4879 37.1036 58.6779 37.1036C54.8606 37.1036 54.3567 40.625 54.3567 43.113C54.3567 45.4877 54.5542 48.8 59.2946 48.6971C64.0298 48.592 63.5108 43.3194 63.5108 42.073ZM58.6779 52.9403C58.6779 52.9403 53.7378 49.1114 50.8537 44.9717C46.9387 38.8676 41.3831 41.354 39.5264 44.4533C37.6747 47.561 34.7961 49.5235 34.3843 50.0446C33.9686 50.5551 28.4173 53.5604 29.649 59.0483C30.8835 64.5317 35.2125 64.4277 35.2125 64.4277C35.2125 64.4277 38.403 64.7408 42.103 63.911C45.8109 63.0841 49.0008 64.114 49.0008 64.114C49.0008 64.114 57.6499 67.0198 60.0133 61.4285C62.3796 55.8417 58.6779 52.9403 58.6779 52.9403Z" fill="white"/>
<path d="M41.3313 47.6019V51.2855H38.3355C38.3355 51.2855 35.3414 51.5343 34.2934 54.9344C33.9279 57.2045 34.616 58.5413 34.736 58.8271C34.8571 59.1122 35.8242 60.7728 38.2547 61.2604H43.8761V47.6422L41.3313 47.6019ZM41.2861 59.025H39.0214C39.0214 59.025 37.4437 58.9428 36.9633 57.1228C36.7154 56.3165 37.0001 55.3851 37.1251 55.0188C37.2394 54.652 37.7691 53.8044 38.8607 53.4778H41.2855L41.2861 59.025ZM45.254 51.6159V58.7863C45.254 58.7863 45.3712 60.5704 47.8826 61.2207H54.3518V51.6148H51.5597V58.8259H48.8954C48.8954 58.8259 48.0438 58.7018 47.8836 58.0163V51.5735L45.254 51.6159Z" fill="#2319DC"/>
</svg>
