<svg width="90" height="90" viewBox="0 0 90 90" fill="none" xmlns="http://www.w3.org/2000/svg">
<path d="M66.7277 5H21.8913C12.2864 5 4.5 12.7864 4.5 22.3913V67.2277C4.5 76.8326 12.2864 84.619 21.8913 84.619H66.7277C76.3326 84.619 84.119 76.8326 84.119 67.2277V22.3913C84.119 12.7864 76.3326 5 66.7277 5Z" fill="#2319DC"/>
<path d="M31.5234 46.6535C35.8484 45.7225 35.2586 40.5382 35.1319 39.4055C34.9187 37.6582 32.8689 34.607 30.0869 34.8508C26.5856 35.1639 26.0743 40.2313 26.0743 40.2313C25.6 42.578 27.2061 47.5872 31.5234 46.6535ZM39.5552 37.9629C41.9427 37.9629 43.8725 35.2064 43.8725 31.8013C43.8725 28.3962 41.9427 25.6436 39.5552 25.6436C37.1666 25.6436 35.2318 28.3956 35.2318 31.8013C35.2318 35.2064 37.1661 37.9629 39.5552 37.9629ZM49.8483 38.3683C53.0444 38.7876 55.092 35.3719 55.5017 32.7836C55.9202 30.1989 53.8553 27.1923 51.5979 26.6763C49.3304 26.1541 46.4999 29.7907 46.2449 32.163C45.934 35.0649 46.6556 37.9584 49.8483 38.3683ZM62.505 42.7166C62.505 41.4787 61.482 37.7471 57.672 37.7471C53.8548 37.7471 53.3509 41.2685 53.3509 43.7566C53.3509 46.1312 53.5483 49.4436 58.2887 49.3407C63.0239 49.2356 62.505 43.9629 62.505 42.7166ZM57.672 53.5839C57.672 53.5839 52.7319 49.7549 49.8478 45.6152C45.9329 39.5111 40.3772 41.9976 38.5205 45.0969C36.6689 48.2045 33.7903 50.167 33.3784 50.6882C32.9627 51.1987 27.4115 54.204 28.6431 59.6918C29.8776 65.1752 34.2066 65.0712 34.2066 65.0712C34.2066 65.0712 37.3971 65.3843 41.0971 64.5546C44.805 63.7276 47.995 64.7576 47.995 64.7576C47.995 64.7576 56.644 67.6634 59.0075 62.0721C61.3737 56.4852 57.672 53.5839 57.672 53.5839Z" fill="white"/>
<path d="M40.3254 48.2455V51.9291H37.3297C37.3297 51.9291 34.3356 52.1778 33.2876 55.5779C32.922 57.848 33.6101 59.1849 33.7301 59.4706C33.8512 59.7557 34.8184 61.4164 37.2488 61.9039H42.8703V48.2857L40.3254 48.2455ZM40.2802 59.6685H38.0156C38.0156 59.6685 36.4378 59.5864 35.9574 57.7664C35.7096 56.9601 35.9942 56.0286 36.1192 55.6624C36.2336 55.2956 36.7632 54.4479 37.8548 54.1214H40.2797L40.2802 59.6685ZM44.2481 52.2595V59.4298C44.2481 59.4298 44.3653 61.214 46.8767 61.8643H53.3459V52.2584H50.5538V59.4695H47.8896C47.8896 59.4695 47.0379 59.3454 46.8778 58.6598V52.2171L44.2481 52.2595Z" fill="#2319DC"/>
</svg>
