<svg width="90" height="90" viewBox="0 0 90 90" fill="none" xmlns="http://www.w3.org/2000/svg">
<path d="M71.4636 56.1998C71.4633 61.614 69.413 66.8272 65.725 70.791C66.1124 70.361 66.4603 69.8971 66.7646 69.4049C67.001 69.0299 67.2088 68.6376 67.3861 68.2313C67.4505 68.0974 67.5076 67.9602 67.557 67.8201C67.6146 67.6859 67.6647 67.5486 67.7072 67.4089C67.7557 67.2795 67.7973 67.1455 67.8343 67.0115C67.8712 66.8775 67.9105 66.7343 67.9405 66.5934L67.9567 66.5449C67.989 66.4063 68.0145 66.2676 68.0422 66.1267C68.0699 65.9858 68.0953 65.838 68.1184 65.6924C68.1392 65.5584 68.1554 65.4244 68.1669 65.2858C68.1995 64.9688 68.2157 64.6504 68.2155 64.3317C68.2205 62.5825 67.7459 60.8654 66.8432 59.3671C66.6462 59.0312 66.4262 58.7093 66.1848 58.4038C65.9027 58.04 65.5938 57.698 65.2607 57.3803C64.432 56.5757 63.4646 55.9277 62.4052 55.4675C61.9411 55.2623 61.4604 55.0969 60.9683 54.9731H60.9475L60.7765 54.9154L58.2792 54.0583L51.7482 51.8128C51.7274 51.8128 51.6997 51.8128 51.6835 51.8128L51.2746 51.6626C49.964 51.1426 48.8758 50.1819 48.1974 48.9458L45.8202 42.8516L43.0872 35.884L42.5628 34.5395L42.4288 34.2669C42.2759 33.8945 42.1974 33.4958 42.1977 33.0933C42.1919 32.9894 42.1919 32.8853 42.1977 32.7814C42.2468 32.3075 42.4063 31.8516 42.6635 31.4504C42.9206 31.0493 43.2683 30.714 43.6786 30.4716C44.0888 30.2292 44.5502 30.0864 45.0256 30.0546C45.5011 30.0229 45.9774 30.1031 46.4162 30.2887L58.5888 36.5263L60.9891 37.753C62.26 38.5078 63.4478 39.3944 64.533 40.3981C68.577 44.1023 71.0412 49.22 71.4151 54.6913C71.4428 55.1972 71.4636 55.6962 71.4636 56.1998Z" fill="url(#paint0_linear_897_6843)"/>
<path d="M68.2084 64.3218C68.2084 64.9278 68.1527 65.5326 68.0421 66.1284C68.0097 66.2832 67.9774 66.4402 67.9404 66.5904C67.8711 66.8676 67.7972 67.1356 67.7094 67.4059C67.6609 67.5445 67.6124 67.6831 67.5592 67.8171C67.5061 67.9511 67.446 68.0897 67.3883 68.2283C67.211 68.6346 67.0032 69.0269 66.7668 69.4019C66.4621 69.8939 66.1142 70.3577 65.7272 70.788C63.953 72.7494 57.9302 76.247 55.7101 77.6701L50.7824 80.6733C47.1715 82.898 43.757 84.4736 39.4623 84.5799C39.259 84.5799 39.0603 84.5799 38.8617 84.5799C38.5844 84.5799 38.3095 84.5799 38.0369 84.5637C34.5593 84.4299 31.1665 83.4521 28.1512 81.7146C25.1358 79.9771 22.5884 77.5322 20.7287 74.5906C19.0134 71.89 17.9328 68.8356 17.5684 65.6571C17.8333 67.1353 18.4448 68.5297 19.3529 69.7259C20.2609 70.9221 21.4395 71.886 22.7921 72.5387C24.1447 73.1913 25.6327 73.514 27.1342 73.4804C28.6356 73.4467 30.1077 73.0577 31.4297 72.3451L31.462 72.3289L31.9449 72.0401L33.9062 70.8851L36.4036 69.4065V69.3372L36.7247 69.1455L59.0668 55.9104L60.7856 54.8916L60.9566 54.9494H60.9774C61.4697 55.0726 61.9504 55.2381 62.4144 55.4437C63.4737 55.9039 64.4411 56.552 65.2698 57.3566C65.6029 57.6742 65.9118 58.0163 66.1939 58.38C66.435 58.6857 66.655 59.0076 66.8523 59.3433C67.7493 60.8484 68.2182 62.5698 68.2084 64.3218Z" fill="url(#paint1_linear_897_6843)"/>
<path d="M36.4041 20.1502V69.4242L33.8975 70.8935L31.9338 72.0486L31.451 72.342C31.4398 72.3435 31.4293 72.3483 31.4209 72.3559C30.0991 73.0684 28.6272 73.4575 27.1259 73.4913C25.6246 73.5251 24.1367 73.2026 22.7841 72.5502C21.4316 71.8978 20.2529 70.9342 19.3448 69.7383C18.4366 68.5424 17.8248 67.1482 17.5596 65.6702C17.5226 65.4646 17.4949 65.252 17.4718 65.0464C17.4418 64.6583 17.421 64.2771 17.4141 63.8913V8.44677C17.4146 7.87001 17.5719 7.30425 17.8692 6.81001C18.1665 6.31577 18.5926 5.91165 19.1018 5.64089C19.6111 5.37012 20.1844 5.24291 20.7604 5.27284C21.3363 5.30278 21.8934 5.48874 22.3718 5.81084L32.0909 12.1592C32.1439 12.203 32.2003 12.2424 32.2595 12.2771C33.5403 13.1516 34.5876 14.3264 35.31 15.6987C36.0324 17.071 36.4081 18.5993 36.4041 20.1502Z" fill="url(#paint2_linear_897_6843)"/>
<g opacity="0.149">
<mask id="mask0_897_6843" style="mask-type:luminance" maskUnits="userSpaceOnUse" x="17" y="52" width="53" height="34">
<path d="M69.9071 52.7344H17.4258V85.2526H69.9071V52.7344Z" fill="white"/>
</mask>
<g mask="url(#mask0_897_6843)">
<path d="M68.2201 64.3257C68.2201 64.9317 68.1645 65.5365 68.0538 66.1323C68.0214 66.2871 67.9891 66.4442 67.9521 66.5943C67.8828 66.8715 67.8089 67.1395 67.7211 67.4098C67.6726 67.5484 67.6241 67.687 67.5709 67.821C67.5178 67.955 67.4577 68.0936 67.4 68.2322C67.2227 68.6385 67.0149 69.0308 66.7785 69.4058C66.4742 69.8981 66.1263 70.362 65.7389 70.7919C63.9647 72.7533 57.9419 76.2509 55.7218 77.674L50.7941 80.6772C47.1832 82.9019 43.7687 84.4775 39.474 84.5838C39.2707 84.5838 39.0721 84.5838 38.8734 84.5838C38.5962 84.5838 38.3212 84.5838 38.0486 84.5676C34.5711 84.4338 31.1783 83.456 28.1629 81.7185C25.1475 79.981 22.6001 77.5361 20.7405 74.5945C19.0251 71.8939 17.9445 68.8395 17.5801 65.661C17.845 67.1392 18.4566 68.5336 19.3646 69.7298C20.2726 70.926 21.4512 71.8899 22.8038 72.5426C24.1564 73.1952 25.6445 73.5179 27.1459 73.4843C28.6473 73.4506 30.1194 73.0616 31.4414 72.349L31.4737 72.3328L31.9566 72.0441L33.918 70.889L36.4153 69.4104V69.3411L36.7364 69.1494L59.0786 55.9143L60.7974 54.8955L60.9683 54.9533H60.9891C61.4814 55.0766 61.9621 55.242 62.4261 55.4476C63.4855 55.9078 64.4528 56.5559 65.2815 57.3605C65.6146 57.6781 65.9235 58.0202 66.2056 58.3839C66.4468 58.6896 66.6667 59.0115 66.864 59.3472C67.761 60.8523 68.2299 62.5737 68.2201 64.3257Z" fill="url(#paint3_linear_897_6843)"/>
</g>
</g>
<g opacity="0.098">
<mask id="mask1_897_6843" style="mask-type:luminance" maskUnits="userSpaceOnUse" x="17" y="5" width="21" height="71">
<path d="M37.4037 5.25195H17.418V75.2415H37.4037V5.25195Z" fill="white"/>
</mask>
<g mask="url(#mask1_897_6843)">
<path d="M36.408 20.1492V69.4233L33.9014 70.8925L31.9377 72.0476L31.4549 72.341C31.4437 72.3425 31.4332 72.3473 31.4248 72.3549C30.103 73.0674 28.6311 73.4566 27.1298 73.4903C25.6285 73.5241 24.1406 73.2016 22.7881 72.5492C21.4355 71.8969 20.2568 70.9332 19.3487 69.7373C18.4405 68.5414 17.8287 67.1472 17.5635 65.6692C17.5266 65.4636 17.4988 65.2511 17.4757 65.0455C17.4457 64.6573 17.4249 64.2762 17.418 63.8904V8.44579C17.4185 7.86903 17.5758 7.30327 17.8731 6.80903C18.1704 6.31479 18.5965 5.91067 19.1057 5.63991C19.615 5.36915 20.1883 5.24193 20.7643 5.27187C21.3402 5.3018 21.8973 5.48777 22.3757 5.80986L32.0948 12.1583C32.1478 12.202 32.2042 12.2414 32.2634 12.2761C33.5442 13.1507 34.5915 14.3254 35.3139 15.6977C36.0364 17.0701 36.412 18.5983 36.408 20.1492Z" fill="url(#paint4_linear_897_6843)"/>
</g>
</g>
<defs>
<linearGradient id="paint0_linear_897_6843" x1="37.9695" y1="40.3013" x2="72.7639" y2="60.4101" gradientUnits="userSpaceOnUse">
<stop stop-color="#37BDFF"/>
<stop offset="0.18" stop-color="#33BFFD"/>
<stop offset="0.36" stop-color="#28C5F5"/>
<stop offset="0.53" stop-color="#15D0E9"/>
<stop offset="0.55" stop-color="#12D1E7"/>
<stop offset="0.59" stop-color="#1CD2E5"/>
<stop offset="0.77" stop-color="#42D8DC"/>
<stop offset="0.91" stop-color="#59DBD6"/>
<stop offset="1" stop-color="#62DCD4"/>
</linearGradient>
<linearGradient id="paint1_linear_897_6843" x1="17.5783" y1="70.4632" x2="68.2452" y2="70.4632" gradientUnits="userSpaceOnUse">
<stop stop-color="#39D2FF"/>
<stop offset="0.15" stop-color="#38CEFE"/>
<stop offset="0.29" stop-color="#35C3FA"/>
<stop offset="0.43" stop-color="#2FB0F3"/>
<stop offset="0.55" stop-color="#299AEB"/>
<stop offset="0.58" stop-color="#2692EC"/>
<stop offset="0.76" stop-color="#1A6CF1"/>
<stop offset="0.91" stop-color="#1355F4"/>
<stop offset="1" stop-color="#104CF5"/>
</linearGradient>
<linearGradient id="paint2_linear_897_6843" x1="26.9553" y1="74.8705" x2="26.9553" y2="7.14601" gradientUnits="userSpaceOnUse">
<stop stop-color="#1B48EF"/>
<stop offset="0.12" stop-color="#1C51F0"/>
<stop offset="0.32" stop-color="#1E69F5"/>
<stop offset="0.57" stop-color="#2190FB"/>
<stop offset="1" stop-color="#26B8F4"/>
</linearGradient>
<linearGradient id="paint3_linear_897_6843" x1="27.6443" y1="82.9501" x2="58.9365" y2="51.714" gradientUnits="userSpaceOnUse">
<stop stop-color="white"/>
<stop offset="0.37" stop-color="#FDFDFD"/>
<stop offset="0.51" stop-color="#F6F6F6"/>
<stop offset="0.6" stop-color="#EBEBEB"/>
<stop offset="0.68" stop-color="#DADADA"/>
<stop offset="0.75" stop-color="#C4C4C4"/>
<stop offset="0.81" stop-color="#A8A8A8"/>
<stop offset="0.86" stop-color="#888888"/>
<stop offset="0.91" stop-color="#626262"/>
<stop offset="0.95" stop-color="#373737"/>
<stop offset="0.99" stop-color="#090909"/>
<stop offset="1"/>
</linearGradient>
<linearGradient id="paint4_linear_897_6843" x1="26.9592" y1="5.95887" x2="26.9592" y2="74.1917" gradientUnits="userSpaceOnUse">
<stop stop-color="white"/>
<stop offset="0.37" stop-color="#FDFDFD"/>
<stop offset="0.51" stop-color="#F6F6F6"/>
<stop offset="0.6" stop-color="#EBEBEB"/>
<stop offset="0.68" stop-color="#DADADA"/>
<stop offset="0.75" stop-color="#C4C4C4"/>
<stop offset="0.81" stop-color="#A8A8A8"/>
<stop offset="0.86" stop-color="#888888"/>
<stop offset="0.91" stop-color="#626262"/>
<stop offset="0.95" stop-color="#373737"/>
<stop offset="0.99" stop-color="#090909"/>
<stop offset="1"/>
</linearGradient>
</defs>
</svg>
